<?xml version="1.0" encoding="utf-8"?>
<!-- Generator: Adobe Illustrator 27.5.0, SVG Export Plug-In . SVG Version: 6.00 Build 0)  -->
<svg version="1.1" id="PRINT" xmlns="http://www.w3.org/2000/svg" xmlns:xlink="http://www.w3.org/1999/xlink" x="0px"
	y="0px" viewBox="0 0 283.465 283.465" style="enable-background:new 0 0 283.465 283.465;" xml:space="preserve">

	<g>

		<ellipse transform="matrix(0.7071 -0.7071 0.7071 0.7071 -58.7075 141.7323)" style="fill:#3b2a29;" cx="141.732"
			cy="141.732" rx="142.016" ry="142.016" />
		<path id="SVGID_x5F_1_x5F_" style="fill:none;" d="M35.207,136.849c0-58.832,47.693-106.526,106.526-106.526
		s106.526,47.693,106.526,106.526" />
		<text>
			<textPath xlink:href="#SVGID_x5F_1_x5F_" startOffset="3.3815%">
				<tspan style="fill:#EBEAE6; font-family:'Montserrat-Regular'; font-size:11.8361px;">MEDIUM INTENSITY |
					ORIGIN : COLOMBIA </tspan>
			</textPath>
		</text>
		<path id="SVGID_x5F_00000036968296139759193420000000862391013362542982_x5F_" style="fill:none;" d="M25.854,143.968
		c0,63.998,51.881,115.878,115.879,115.878s115.878-51.881,115.878-115.878" />
		<text>
			<textPath xlink:href="#SVGID_x5F_00000036968296139759193420000000862391013362542982_x5F_"
				startOffset="3.5765%">
				<tspan style="fill:#EBEAE6; font-family:'Montserrat-Regular'; font-size:12.8752px;">SPECIAL HAND ROASTED
					COFFEE | 250g</tspan>
			</textPath>
		</text>
	</g>
	<g>
		<text transform="matrix(1 0 0 1 90.6266 139.3097)">
			<tspan x="0" y="0"
				style="fill:#EBEAE6; font-family:'AbrilFatface-Regular'; font-size:43.945px; letter-spacing:-1;">COLD
			</tspan>
			<tspan x="-0.242" y="38.043"
				style="fill:#EBEAE6; font-family:'AbrilFatface-Regular'; font-size:43.945px; letter-spacing:-1;">BREW
			</tspan>
		</text>

		<line style="fill:none;stroke:#EBEAE6;stroke-width:0.5;stroke-miterlimit:10;" x1="92.497" y1="99.645"
			x2="192.512" y2="99.645" />

		<text transform="matrix(1 0 0 1 110.5719 195.0724)"
			style="fill:#BC9F7D; font-family:'Montserrat-ExtraBold'; font-size:10.3565px;">MOKA ORIGINS</text>

		<line style="fill:none;stroke:#EBEAE6;stroke-width:0.5;stroke-miterlimit:10;" x1="92.497" y1="184.872"
			x2="192.512" y2="184.872" />

		<line style="fill:none;stroke:#EBEAE6;stroke-width:0.5;stroke-miterlimit:10;" x1="92.497" y1="199.703"
			x2="192.512" y2="199.703" />

		<text transform="matrix(1 0 0 1 130.9791 208.7061)"
			style="fill:#BC9F7D; font-family:'Montserrat-ExtraBold'; font-size:6.3405px;">EST. 1986</text>
		<g>
			<g>
				<g>
					<g>
						<path style="fill:#EBEAE6;"
							d="M150.054,76.871c-1.485,0-2.971-0.565-4.102-1.696c-1.092-1.091-1.692-2.548-1.692-4.102
						c0-1.553,0.601-3.01,1.692-4.101l3.246-3.246c1.092-1.091,2.549-1.693,4.102-1.693c1.554,0,3.01,0.601,4.101,1.693
						c2.262,2.261,2.262,5.941,0,8.203l-3.246,3.246C153.024,76.306,151.539,76.871,150.054,76.871z M153.3,62.667
						c-1.385,0-2.682,0.535-3.654,1.507L146.4,67.42c-0.971,0.971-1.507,2.269-1.507,3.653c0,1.385,0.535,2.682,1.507,3.654
						c2.015,2.014,5.292,2.014,7.306,0l3.246-3.246c2.014-2.015,2.014-5.292,0-7.306C155.982,63.202,154.684,62.667,153.3,62.667z" />
						<path style="fill:#EBEAE6;" d="M146.311,75.432c-0.016-0.16-0.317-3.943,5.067-6.096c4.671-1.868,4.786-5.805,4.789-5.971
						l0.634,0.008c-0.001,0.045-0.111,4.522-5.188,6.552c-4.921,1.968-4.684,5.306-4.671,5.447L146.311,75.432z" />
					</g>
					<g>
						<path style="fill:#EBEAE6;" d="M153.3,93.035c-1.486,0-2.971-0.565-4.102-1.696l-3.246-3.246
						c-1.092-1.091-1.692-2.548-1.692-4.102c0-1.554,0.601-3.01,1.692-4.102l0,0l0,0c1.091-1.091,2.548-1.692,4.102-1.692
						c1.553,0,3.01,0.601,4.101,1.692l3.246,3.246c2.261,2.262,2.261,5.942,0,8.203C156.271,92.469,154.785,93.035,153.3,93.035z
						 M150.054,78.831c-1.385,0-2.682,0.535-3.653,1.507l0,0c-0.971,0.972-1.507,2.269-1.507,3.653c0,1.384,0.535,2.682,1.507,3.653
						l3.246,3.246c2.015,2.014,5.292,2.014,7.307,0c2.014-2.015,2.014-5.292,0-7.307l-3.246-3.246
						C152.735,79.366,151.438,78.831,150.054,78.831z" />
						<path style="fill:#EBEAE6;" d="M157.754,90.739c-0.045-0.001-4.522-0.111-6.552-5.188c-1.978-4.945-5.413-4.677-5.446-4.671
						l-0.061-0.631c0.158-0.015,3.943-0.314,6.095,5.067c1.868,4.671,5.805,4.786,5.972,4.789L157.754,90.739z" />
					</g>
					<g>
						<path style="fill:#EBEAE6;" d="M133.878,93.035c-1.485,0-2.971-0.566-4.102-1.696c-2.261-2.262-2.261-5.942,0-8.203
						l3.247-3.246c1.091-1.091,2.548-1.692,4.101-1.692c1.554,0,3.01,0.601,4.102,1.692l0,0l0,0
						c1.091,1.091,1.692,2.548,1.692,4.102c0,1.554-0.601,3.01-1.692,4.102l-3.246,3.246
						C136.848,92.469,135.363,93.035,133.878,93.035z M137.124,78.831c-1.384,0-2.682,0.535-3.653,1.507l-3.247,3.246
						c-2.014,2.014-2.014,5.292,0,7.307c2.014,2.014,5.292,2.014,7.307,0l3.246-3.246c0.971-0.972,1.507-2.269,1.507-3.653
						c0-1.384-0.535-2.682-1.507-3.653l0,0C139.806,79.366,138.508,78.831,137.124,78.831z" />
						<path style="fill:#EBEAE6;" d="M131.01,91.7l-0.634-0.008c0.001-0.045,0.111-4.522,5.187-6.552
						c4.921-1.968,4.684-5.306,4.671-5.447l0.631-0.06c0.016,0.16,0.317,3.943-5.067,6.096
						C131.128,87.596,131.013,91.533,131.01,91.7z" />
					</g>
					<g>
						<path style="fill:#EBEAE6;" d="M136.971,76.871c-1.485,0-2.971-0.566-4.102-1.696l-3.246-3.246
						c-2.262-2.261-2.262-5.941,0-8.203c1.091-1.091,2.548-1.693,4.102-1.693c1.553,0,3.01,0.601,4.102,1.693l3.246,3.246
						c2.262,2.262,2.262,5.941,0,8.203l0,0C139.942,76.306,138.456,76.871,136.971,76.871z M133.725,62.667
						c-1.384,0-2.682,0.535-3.653,1.507c-2.014,2.015-2.014,5.292,0,7.306l3.246,3.246c2.015,2.014,5.293,2.015,7.307,0
						c2.014-2.015,2.014-5.293,0-7.307l-3.246-3.246C136.406,63.202,135.109,62.667,133.725,62.667z" />
						<path style="fill:#EBEAE6;" d="M141.131,74.823c-0.829,0-3.997-0.325-5.897-5.075c-1.874-4.687-5.93-4.788-5.971-4.788
						l0.007-0.634c0.045,0.001,4.522,0.111,6.552,5.187c1.968,4.921,5.306,4.686,5.447,4.671l0.06,0.631
						C141.311,74.817,141.242,74.823,141.131,74.823z" />
					</g>
				</g>
				<circle style="fill:#BC9F7D;" cx="143.71" cy="77.466" r="1.284" />
			</g>
			<g>
				<path style="fill:#EBEAE6;" d="M143.71,58.309c-0.175,0-0.317-0.142-0.317-0.317v-5.415c0-0.175,0.142-0.317,0.317-0.317
				c0.175,0,0.317,0.142,0.317,0.317v5.415C144.027,58.167,143.886,58.309,143.71,58.309z" />
				<path style="fill:#EBEAE6;" d="M147.016,59.698c-0.044,0-0.089-0.009-0.131-0.028c-0.159-0.072-0.23-0.26-0.157-0.42l1.355-2.983
				c0.073-0.159,0.261-0.23,0.42-0.157c0.159,0.072,0.23,0.26,0.157,0.42l-1.355,2.983
				C147.252,59.629,147.137,59.698,147.016,59.698z" />
				<path style="fill:#EBEAE6;" d="M140.404,59.698c-0.127,0-0.247-0.077-0.295-0.202l-1.161-2.983
				c-0.064-0.163,0.017-0.347,0.18-0.41c0.163-0.064,0.347,0.018,0.41,0.181l1.161,2.983c0.063,0.163-0.017,0.347-0.18,0.41
				C140.481,59.691,140.442,59.698,140.404,59.698z" />
			</g>
		</g>
		<g>
			<text transform="matrix(1 0 0 1 113.818 81.713)"
				style="fill:#BC9F7D; font-family:'Montserrat-Regular'; font-size:11.8361px;">19</text>
		</g>
		<g>

			<text transform="matrix(1 0 0 1 160.3112 81.713)"
				style="fill:#BC9F7D; font-family:'Montserrat-Regular'; font-size:11.8361px;">86</text>
		</g>
	</g>
</svg>